<?xml version="1.0" encoding="UTF-8"?>
<svg xmlns="http://www.w3.org/2000/svg" id="Layer_1" data-name="Layer 1" viewBox="0 0 512 512" width="512" height="512"><path d="M189.821,227.167c-2.065.891-4.134,1.838-6.15,2.815a6,6,0,1,0,5.234,10.8c1.859-.9,3.767-1.775,5.671-2.6a6,6,0,0,0-4.755-11.017Z"/><path d="M165.5,240.387a143.468,143.468,0,0,0-39.632,39.331,6,6,0,0,0,9.961,6.692,131.542,131.542,0,0,1,36.342-36.048,6,6,0,1,0-6.671-9.975Z"/><path d="M479.822,346H469.688c-5.254-48.223-28.973-92.748-67.267-125.876C368.23,190.543,325,172.391,279,167.854V145.849a39.45,39.45,0,1,0-46,0v22.005c-46,4.537-89.215,22.683-123.4,52.254-38.3,33.13-62.047,77.661-67.3,125.892H32.6c-12.8,0-23.681,10-24.055,22.8A23.544,23.544,0,0,0,32.178,393h1.557l4.193,22.908A26.928,26.928,0,0,0,64.238,438H447.114a27.036,27.036,0,0,0,26.2-21.509L478.146,393H479.4c12.8,0,23.681-10,24.055-22.8A23.544,23.544,0,0,0,479.822,346ZM228.579,113.809A27.421,27.421,0,1,1,256,141.23,27.452,27.452,0,0,1,228.579,113.809ZM267,151.679v15.3c-4-.169-7.346-.26-11-.26s-7,.091-11,.26v-15.3a39.783,39.783,0,0,0,22,0ZM117.485,229.185C155.111,196.64,204.3,178.717,256,178.717S356.9,196.645,394.531,229.2c35.637,30.83,57.862,72.1,63.075,116.8H54.385C59.6,301.3,81.839,260.016,117.485,229.185ZM479.822,381H147a6,6,0,0,0,0,12H465.891l-4.331,21.052A14.988,14.988,0,0,1,447.114,426H64.238a14.927,14.927,0,0,1-14.509-12.27L45.938,393H113a6,6,0,0,0,0-12H32.414a11.746,11.746,0,0,1-11.877-11.457A11.534,11.534,0,0,1,32.178,358H479.586a11.746,11.746,0,0,1,11.877,11.457A11.534,11.534,0,0,1,479.822,381Z"/></svg>
