<svg height="512" viewBox="0 0 512 512" width="512" xmlns="http://www.w3.org/2000/svg"><g><path d="m496 280h-40v-168a80 80 0 0 0 -160 0v.68a48.069 48.069 0 0 0 -40 47.32v24a8 8 0 0 0 8 8h80a8 8 0 0 0 8-8v-24a48.069 48.069 0 0 0 -40-47.32v-.68a64 64 0 0 1 128 0v168h-424a8 8 0 0 0 -8 8v24a8 8 0 0 0 8 8h16v72a56.086 56.086 0 0 0 48 55.42v24.58a8 8 0 0 0 8 8h32a8 8 0 0 0 8-8v-24h256v24a8 8 0 0 0 8 8h32a8 8 0 0 0 8-8v-24.58a56.086 56.086 0 0 0 48-55.42v-72h16a8 8 0 0 0 8-8v-24a8 8 0 0 0 -8-8zm-160-104h-64v-8h64zm-1.01-24h-61.98a32.008 32.008 0 0 1 61.98 0zm-222.99 312h-16v-16h16zm304 0h-16v-16h16zm48-72a40.04 40.04 0 0 1 -40 40h-336a40.04 40.04 0 0 1 -40-40v-72h416zm24-88h-464v-8h464z"/><path d="m304 240a8 8 0 0 0 8-8v-24a8 8 0 0 0 -16 0v24a8 8 0 0 0 8 8z"/><path d="m296 264a8 8 0 0 0 16 0v-8a8 8 0 0 0 -16 0z"/><path d="m344 240v-32a8 8 0 0 0 -16 0v32a8 8 0 0 0 16 0z"/><path d="m280 224v-8a8 8 0 0 0 -16 0v8a8 8 0 0 0 16 0z"/></g></svg>